<?xml version="1.0" encoding="UTF-8" standalone="no"?>
<!-- Created with Inkscape (http://www.inkscape.org/) -->

<svg
   width="82.869026mm"
   height="133.00571mm"
   viewBox="0 0 82.869026 133.00571"
   version="1.1"
   id="svg5"
   xmlns="http://www.w3.org/2000/svg"
>
  <defs
     id="defs2" />
  <g
     id="layer1"
     transform="translate(-45.013381,-53.312024)">
    <path
       style="fill:none;fill-opacity:1;stroke:#cabdbd;stroke-width:1.865;stroke-linecap:butt;stroke-linejoin:miter;stroke-miterlimit:4;stroke-dasharray:none;stroke-opacity:1"
       d="m 62.189362,58.980157 c 0,0 2.362169,-3.274611 5.176239,-3.237572 8.11703,0.106837 6.333084,9.39168 1.542,24.460809 -5.934242,18.664637 37.096419,27.634216 39.055999,-6.992416 0.49713,-8.784532 0.69787,-14.481466 1.35015,-19.780161 0,0 12.03392,93.694273 -31.023641,125.218433 -35.783529,26.19854 -52.290376,-36.51171 8.129782,-37.90076 49.114169,-1.12912 39.403229,-19.80722 39.403229,-19.80722"
       id="path42"
       />
    <path
       style="fill:#473323;fill-opacity:1;stroke:#000000;stroke-width:0.165;stroke-linecap:butt;stroke-linejoin:miter;stroke-miterlimit:4;stroke-dasharray:none;stroke-opacity:1"
       d="m 104.78306,138.2489 c 0,0 -9.102965,1.40903 -23.846328,1.71076 -9.279298,0.18991 -20.729842,4.51864 -25.850111,9.00749 -2.452485,2.15005 -10.720403,9.95685 -9.938824,21.55175 0.781579,11.59489 10.373652,15.3127 15.456701,15.49446 6.428162,0.22985 18.406962,-2.84692 28.091238,-16.71346 9.684277,-13.86654 15.211224,-24.44031 16.087324,-31.051 z"
       id="path4262"
       />
    <path
       style="fill:#3e1d0e;fill-opacity:1;stroke:#000000;stroke-width:0.264583px;stroke-linecap:butt;stroke-linejoin:miter;stroke-opacity:1"
       d="m 104.21325,138.69118 c 0,0 -19.442882,-0.46468 -33.584231,2.86633 -11.076009,2.609 -16.635387,8.25654 -18.909013,11.04768 -8.681169,10.65714 -7.146815,19.30529 -4.486228,25.51042 1.265038,2.95037 12.509174,15.06641 31.294308,2.42642 3.08913,-2.07859 9.048059,-5.16925 17.841572,-19.07994 7.267772,-11.49707 8.177812,-20.50179 7.843592,-22.77091 0,0 -3.75374,13.4173 -10.325045,22.64727 -1.80729,2.5385 -4.136812,4.69791 -6.250559,6.52926 -1.191456,1.03228 -2.314354,1.96033 -3.236526,2.79328 -8.281055,7.47986 -17.685992,8.98465 -26.60333,4.86714 -1.289723,-0.59552 -8.14538,-5.66539 -8.560101,-13.12521 -0.332703,-5.9845 4.705061,-13.9281 15.80696,-18.57977 9.261447,-3.88053 27.560559,-3.97114 39.168601,-5.13197 z"
       id="path5988"
       />
    <path
       style="fill:#000000;fill-opacity:1;stroke:#000000;stroke-width:0.365;stroke-linecap:butt;stroke-linejoin:miter;stroke-miterlimit:4;stroke-dasharray:none;stroke-opacity:1"
       d="m 104.94361,138.31823 c 0,0 10.03506,-2.15516 12.55168,-3.68538 2.51662,-1.53023 6.94084,-3.61155 7.86219,-7.44258 0.97599,-4.05821 -0.27218,-5.70944 -0.27218,-5.70944 l 1.71772,-0.9099 c 0,0 1.79214,2.7637 0.31046,7.60135 -1.04982,3.42766 -4.23377,5.63254 -6.29743,6.94017 -2.06365,1.30762 -6.59766,2.90571 -6.59766,2.90571 0,0 -4.68332,1.34796 -7.10589,1.77573 -2.42257,0.42778 -2.51641,0.4621 -2.51641,0.4621 z"
       id="path12481"
       />
    <path
       style="fill:#3e1d0e;fill-opacity:1;stroke:#fffffe;stroke-width:1.012;stroke-linecap:butt;stroke-linejoin:round;stroke-miterlimit:4;stroke-dasharray:none;stroke-opacity:1"
       d="m 71.032668,182.24081 c -2.585293,1.66679 -6.109844,1.71966 -9.212363,1.30065 -0.688155,-0.0818 -1.325228,-0.30079 -1.900129,-0.61417"
       id="path36246" />
  </g>
</svg>
